<svg width="37" height="34" viewBox="0 0 37 34" fill="none" xmlns="http://www.w3.org/2000/svg">
<path fill-rule="evenodd" clip-rule="evenodd" d="M2.75525 3.7262C2.33786 3.7262 1.99951 4.0402 1.99951 4.42753C1.99951 4.81486 2.33786 5.12886 2.75525 5.12886H4.76999C5.82897 5.12886 6.74691 5.80918 6.98108 6.7676L10.7114 22.0349C11.1017 23.6323 12.6316 24.7661 14.3966 24.7661H29.4598C30.1369 24.7661 30.7314 24.3482 30.9147 23.7433L32.9431 17.0515H16.3587C15.9443 17.0515 15.6084 16.7375 15.6084 16.3502C15.6084 15.9628 15.9443 15.6488 16.3587 15.6488H33.3682L34.9536 10.418C35.2248 9.52319 34.5002 8.63552 33.4986 8.63552H8.9873L8.45514 6.45743C8.06485 4.86006 6.53497 3.7262 4.76999 3.7262H2.75525ZM16.2545 28.9741C16.2545 29.7488 15.5827 30.3768 14.754 30.3768C13.9252 30.3768 13.2534 29.7488 13.2534 28.9741C13.2534 28.1994 13.9252 27.5715 14.754 27.5715C15.5827 27.5715 16.2545 28.1994 16.2545 28.9741ZM26.7581 30.3768C27.5869 30.3768 28.2587 29.7488 28.2587 28.9741C28.2587 28.1994 27.5869 27.5715 26.7581 27.5715C25.9294 27.5715 25.2576 28.1994 25.2576 28.9741C25.2576 29.7488 25.9294 30.3768 26.7581 30.3768Z" fill="white"/>
</svg>
