<svg width="48" height="48" viewBox="0 0 48 48" fill="none" xmlns="http://www.w3.org/2000/svg">
<path d="M4 5.5H8.5L15.5 35H37.5" stroke="#FFC300" stroke-width="3" stroke-linecap="round" stroke-linejoin="round"/>
<path d="M19.5 44C21.1569 44 22.5 42.6569 22.5 41C22.5 39.3431 21.1569 38 19.5 38C17.8431 38 16.5 39.3431 16.5 41C16.5 42.6569 17.8431 44 19.5 44Z" fill="#FFC300"/>
<path d="M32.5 44C34.1569 44 35.5 42.6569 35.5 41C35.5 39.3431 34.1569 38 32.5 38C30.8431 38 29.5 39.3431 29.5 41C29.5 42.6569 30.8431 44 32.5 44Z" fill="#FFC300"/>
<path d="M10.5 12H43.5763C44.983 12 45.9502 13.4138 45.4403 14.7249L39.9959 28.7249C39.6969 29.4936 38.9567 30 38.1319 30H14.5L10.5 12Z" fill="#FFC300"/>
</svg>
